<svg width="194" height="224" viewBox="0 0 194 224" fill="none" xmlns="http://www.w3.org/2000/svg">
<g filter="url(#filter0_d)">
<rect x="18" y="27" width="150" height="180" rx="12" fill="#FBFBFB"/>
</g>
<path d="M65.0117 191V181.047H68.4229C69.5485 181.047 70.4053 181.272 70.9932 181.724C71.5811 182.175 71.875 182.847 71.875 183.74C71.875 184.196 71.752 184.606 71.5059 184.971C71.2598 185.335 70.8997 185.618 70.4258 185.818C70.9635 185.964 71.3783 186.24 71.6699 186.646C71.9661 187.047 72.1143 187.53 72.1143 188.095C72.1143 189.029 71.8135 189.747 71.2119 190.248C70.6149 190.749 69.7581 191 68.6416 191H65.0117ZM66.7412 186.509V189.619H68.6621C69.2044 189.619 69.6283 189.485 69.9336 189.216C70.2389 188.947 70.3916 188.573 70.3916 188.095C70.3916 187.06 69.863 186.532 68.8057 186.509H66.7412ZM66.7412 185.237H68.4365C68.9743 185.237 69.3936 185.117 69.6943 184.875C69.9997 184.629 70.1523 184.283 70.1523 183.836C70.1523 183.344 70.0111 182.988 69.7285 182.77C69.4505 182.551 69.0153 182.441 68.4229 182.441H66.7412V185.237ZM76.5702 191H74.9091V183.604H76.5702V191ZM74.8065 181.683C74.8065 181.427 74.8863 181.215 75.0458 181.047C75.2098 180.878 75.4423 180.794 75.743 180.794C76.0438 180.794 76.2762 180.878 76.4403 181.047C76.6044 181.215 76.6864 181.427 76.6864 181.683C76.6864 181.933 76.6044 182.143 76.4403 182.312C76.2762 182.476 76.0438 182.558 75.743 182.558C75.4423 182.558 75.2098 182.476 75.0458 182.312C74.8863 182.143 74.8065 181.933 74.8065 181.683ZM81.0466 183.604L81.0945 184.458C81.6414 183.797 82.3591 183.467 83.2478 183.467C84.7882 183.467 85.572 184.349 85.5994 186.112V191H83.9382V186.208C83.9382 185.739 83.8357 185.392 83.6306 185.169C83.4301 184.941 83.0997 184.827 82.6394 184.827C81.9695 184.827 81.4705 185.13 81.1423 185.736V191H79.4812V183.604H81.0466ZM92.8375 191C92.7646 190.859 92.7008 190.629 92.6461 190.31C92.1175 190.861 91.4704 191.137 90.7047 191.137C89.9619 191.137 89.3558 190.925 88.8864 190.501C88.417 190.077 88.1823 189.553 88.1823 188.929C88.1823 188.14 88.4739 187.536 89.0573 187.117C89.6452 186.693 90.4837 186.481 91.5729 186.481H92.5914V185.996C92.5914 185.613 92.4843 185.308 92.2702 185.08C92.056 184.848 91.7301 184.731 91.2926 184.731C90.9144 184.731 90.6045 184.827 90.3629 185.019C90.1214 185.205 90.0006 185.445 90.0006 185.736H88.3395C88.3395 185.331 88.4739 184.952 88.7428 184.602C89.0117 184.246 89.3763 183.968 89.8366 183.768C90.3014 183.567 90.8187 183.467 91.3883 183.467C92.2542 183.467 92.9446 183.686 93.4596 184.123C93.9746 184.556 94.2389 185.167 94.2526 185.955V189.291C94.2526 189.956 94.346 190.487 94.5329 190.884V191H92.8375ZM91.0123 189.804C91.3405 189.804 91.6481 189.724 91.9352 189.564C92.2269 189.405 92.4456 189.191 92.5914 188.922V187.527H91.6959C91.0807 187.527 90.6181 187.634 90.3082 187.849C89.9983 188.063 89.8434 188.366 89.8434 188.758C89.8434 189.077 89.9482 189.332 90.1579 189.523C90.372 189.71 90.6569 189.804 91.0123 189.804ZM98.6538 183.604L98.7017 184.458C99.2486 183.797 99.9663 183.467 100.855 183.467C102.395 183.467 103.179 184.349 103.207 186.112V191H101.545V186.208C101.545 185.739 101.443 185.392 101.238 185.169C101.037 184.941 100.707 184.827 100.247 184.827C99.5767 184.827 99.0777 185.13 98.7495 185.736V191H97.0884V183.604H98.6538ZM109.064 189.811C109.479 189.811 109.823 189.69 110.096 189.448C110.37 189.207 110.515 188.908 110.534 188.553H112.099C112.081 189.013 111.937 189.444 111.668 189.845C111.399 190.241 111.035 190.556 110.575 190.788C110.114 191.021 109.618 191.137 109.084 191.137C108.05 191.137 107.23 190.802 106.623 190.132C106.017 189.462 105.714 188.537 105.714 187.356V187.186C105.714 186.06 106.015 185.16 106.617 184.485C107.218 183.806 108.038 183.467 109.078 183.467C109.957 183.467 110.673 183.724 111.224 184.239C111.78 184.75 112.072 185.422 112.099 186.256H110.534C110.515 185.832 110.37 185.483 110.096 185.21C109.827 184.937 109.483 184.8 109.064 184.8C108.526 184.8 108.111 184.996 107.82 185.388C107.528 185.775 107.38 186.365 107.375 187.158V187.425C107.375 188.227 107.519 188.826 107.806 189.223C108.098 189.615 108.517 189.811 109.064 189.811ZM117.731 191.137C116.678 191.137 115.824 190.806 115.167 190.146C114.516 189.48 114.19 188.596 114.19 187.493V187.288C114.19 186.55 114.331 185.891 114.614 185.312C114.901 184.729 115.302 184.276 115.817 183.952C116.332 183.629 116.906 183.467 117.539 183.467C118.546 183.467 119.324 183.788 119.87 184.431C120.422 185.073 120.698 185.982 120.698 187.158V187.828H115.865C115.915 188.439 116.117 188.922 116.473 189.277C116.833 189.633 117.284 189.811 117.826 189.811C118.588 189.811 119.207 189.503 119.686 188.888L120.581 189.742C120.285 190.184 119.889 190.528 119.392 190.774C118.9 191.016 118.346 191.137 117.731 191.137ZM117.533 184.8C117.077 184.8 116.708 184.959 116.425 185.278C116.147 185.597 115.969 186.042 115.892 186.611H119.057V186.488C119.02 185.932 118.872 185.513 118.613 185.23C118.353 184.943 117.993 184.8 117.533 184.8Z" fill="black"/>
<circle cx="93" cy="103" r="60" fill="#232323" fill-opacity="0.81"/>
<path fill-rule="evenodd" clip-rule="evenodd" d="M54.1111 114.111L65.2222 103L54.1111 91.8889L43 103L54.1111 114.111Z" fill="#F3BA2F"/>
<path fill-rule="evenodd" clip-rule="evenodd" d="M131.889 114.111L143.001 103L131.889 91.8889L120.778 103L131.889 114.111Z" fill="#F3BA2F"/>
<path fill-rule="evenodd" clip-rule="evenodd" d="M92.9998 114.111L104.111 103L92.9998 91.8889L81.8887 103L92.9998 114.111Z" fill="#F3BA2F"/>
<path fill-rule="evenodd" clip-rule="evenodd" d="M98.5554 58.5557L92.9999 53.0001L62.4443 83.5557L73.5554 94.6668L92.9999 75.2223L112.444 94.6668L123.555 83.5557L98.5554 58.5557Z" fill="#F3BA2F"/>
<path fill-rule="evenodd" clip-rule="evenodd" d="M87.4446 147.444L93.0001 153L123.556 122.444L112.445 111.333L93.0001 130.778L73.5557 111.333L62.4446 122.444L87.4446 147.444Z" fill="#F3BA2F"/>
<defs>
<filter id="filter0_d" x="0" y="0" width="194" height="224" filterUnits="userSpaceOnUse" color-interpolation-filters="sRGB">
<feFlood flood-opacity="0" result="BackgroundImageFix"/>
<feColorMatrix in="SourceAlpha" type="matrix" values="0 0 0 0 0 0 0 0 0 0 0 0 0 0 0 0 0 0 127 0"/>
<feMorphology radius="2" operator="dilate" in="SourceAlpha" result="effect1_dropShadow"/>
<feOffset dx="4" dy="-5"/>
<feGaussianBlur stdDeviation="10"/>
<feColorMatrix type="matrix" values="0 0 0 0 0 0 0 0 0 0 0 0 0 0 0 0 0 0 0.14 0"/>
<feBlend mode="normal" in2="BackgroundImageFix" result="effect1_dropShadow"/>
<feBlend mode="normal" in="SourceGraphic" in2="effect1_dropShadow" result="shape"/>
</filter>
</defs>
</svg>
