<svg width="195" height="224" viewBox="0 0 195 224" fill="none" xmlns="http://www.w3.org/2000/svg">
<g filter="url(#filter0_d)">
<rect x="18.667" y="27" width="150" height="180" rx="12" fill="#FBFBFB"/>
</g>
<path d="M79.6787 191V181.047H83.0898C84.2155 181.047 85.0723 181.272 85.6602 181.724C86.248 182.175 86.542 182.847 86.542 183.74C86.542 184.196 86.4189 184.606 86.1729 184.971C85.9268 185.335 85.5667 185.618 85.0928 185.818C85.6305 185.964 86.0452 186.24 86.3369 186.646C86.6331 187.047 86.7812 187.53 86.7812 188.095C86.7812 189.029 86.4805 189.747 85.8789 190.248C85.2819 190.749 84.4251 191 83.3086 191H79.6787ZM81.4082 186.509V189.619H83.3291C83.8714 189.619 84.2952 189.485 84.6006 189.216C84.9059 188.947 85.0586 188.573 85.0586 188.095C85.0586 187.06 84.5299 186.532 83.4727 186.509H81.4082ZM81.4082 185.237H83.1035C83.6413 185.237 84.0605 185.117 84.3613 184.875C84.6667 184.629 84.8193 184.283 84.8193 183.836C84.8193 183.344 84.6781 182.988 84.3955 182.77C84.1175 182.551 83.6823 182.441 83.0898 182.441H81.4082V185.237ZM97.5262 191H95.7968L91.3602 183.938V191H89.6307V181.047H91.3602L95.8104 188.136V181.047H97.5262V191ZM100.69 191V181.047H104.101C105.227 181.047 106.084 181.272 106.672 181.724C107.26 182.175 107.553 182.847 107.553 183.74C107.553 184.196 107.43 184.606 107.184 184.971C106.938 185.335 106.578 185.618 106.104 185.818C106.642 185.964 107.057 186.24 107.348 186.646C107.645 187.047 107.793 187.53 107.793 188.095C107.793 189.029 107.492 189.747 106.89 190.248C106.293 190.749 105.437 191 104.32 191H100.69ZM102.42 186.509V189.619H104.341C104.883 189.619 105.307 189.485 105.612 189.216C105.917 188.947 106.07 188.573 106.07 188.095C106.07 187.06 105.541 186.532 104.484 186.509H102.42ZM102.42 185.237H104.115C104.653 185.237 105.072 185.117 105.373 184.875C105.678 184.629 105.831 184.283 105.831 183.836C105.831 183.344 105.69 182.988 105.407 182.77C105.129 182.551 104.694 182.441 104.101 182.441H102.42V185.237Z" fill="black"/>
<circle cx="93.667" cy="103" r="60" fill="#FFB800" fill-opacity="0.91"/>
<path d="M136.659 115.51C133.223 108.816 128.054 98.7872 122.878 88.7636C117.702 78.7404 112.54 68.7165 109.103 62.0337C106.311 56.5494 100.254 53 93.665 53C87.1175 53 81.0719 56.5157 78.2677 61.9549C74.3106 69.7171 68.0212 81.8791 62.0976 93.3536C57.7442 101.785 53.5789 109.84 50.6769 115.505C49.3602 118.053 48.667 120.883 48.667 123.684C48.6612 134.331 58.0992 143 69.6981 143C77.1717 143 86.0696 138.224 93.665 131.423C101.259 138.224 110.157 143 117.63 143C129.229 143 138.667 134.331 138.667 123.678C138.667 120.883 137.969 118.053 136.659 115.51ZM82.7504 101.668C82.7504 96.1388 87.6498 91.6388 93.665 91.6388C99.6782 91.6388 104.578 96.139 104.578 101.668C104.578 108.361 99.9113 116.349 93.665 123.076C87.4104 116.354 82.7504 108.361 82.7504 101.668ZM117.63 137.374C112.13 137.374 104.59 133.189 97.9272 127.25C105.35 119.301 110.703 109.673 110.703 101.668C110.703 93.0391 103.06 86.0194 93.665 86.0194C84.2691 86.0194 76.6257 93.0391 76.6257 101.668C76.6257 109.666 81.9783 119.301 89.4016 127.25C82.7379 133.189 75.1983 137.374 69.6979 137.374C61.4737 137.374 54.7849 131.232 54.7849 123.678C54.7849 121.704 55.2759 119.713 56.2067 117.906C59.1157 112.237 63.2748 104.188 67.6284 95.7607C73.5572 84.2751 79.8474 72.1028 83.8104 64.346C85.6043 60.8753 89.4683 58.6261 93.665 58.6261C97.8839 58.6261 101.76 60.8971 103.555 64.4247C106.991 71.1183 112.159 81.1472 117.336 91.1719C122.511 101.194 127.675 111.213 131.116 117.913C132.046 119.713 132.536 121.704 132.536 123.678C132.543 131.232 125.855 137.374 117.63 137.374Z" fill="#F5F3F3"/>
<defs>
<filter id="filter0_d" x="0.666992" y="0" width="194" height="224" filterUnits="userSpaceOnUse" color-interpolation-filters="sRGB">
<feFlood flood-opacity="0" result="BackgroundImageFix"/>
<feColorMatrix in="SourceAlpha" type="matrix" values="0 0 0 0 0 0 0 0 0 0 0 0 0 0 0 0 0 0 127 0"/>
<feMorphology radius="2" operator="dilate" in="SourceAlpha" result="effect1_dropShadow"/>
<feOffset dx="4" dy="-5"/>
<feGaussianBlur stdDeviation="10"/>
<feColorMatrix type="matrix" values="0 0 0 0 0 0 0 0 0 0 0 0 0 0 0 0 0 0 0.14 0"/>
<feBlend mode="normal" in2="BackgroundImageFix" result="effect1_dropShadow"/>
<feBlend mode="normal" in="SourceGraphic" in2="effect1_dropShadow" result="shape"/>
</filter>
</defs>
</svg>
