<svg width="195" height="224" viewBox="0 0 195 224" fill="none" xmlns="http://www.w3.org/2000/svg">
<g filter="url(#filter0_d)">
<rect x="18.3335" y="27" width="150" height="180" rx="12" fill="#FBFBFB"/>
</g>
<path d="M67.6626 186.557H63.5747V189.619H68.353V191H61.8452V181.047H68.3052V182.441H63.5747V185.189H67.6626V186.557ZM72.8021 181.806V183.604H74.1078V184.834H72.8021V188.963C72.8021 189.245 72.8568 189.451 72.9662 189.578C73.0801 189.701 73.2806 189.763 73.5678 189.763C73.7592 189.763 73.9528 189.74 74.1488 189.694V190.979C73.7706 191.084 73.406 191.137 73.0551 191.137C71.779 191.137 71.141 190.433 71.141 189.024V184.834H69.9242V183.604H71.141V181.806H72.8021ZM78.1399 184.41C78.6822 183.781 79.3681 183.467 80.1975 183.467C81.7743 183.467 82.5741 184.367 82.5969 186.167V191H80.9358V186.229C80.9358 185.718 80.8241 185.358 80.6008 185.148C80.3821 184.934 80.0585 184.827 79.6301 184.827C78.9648 184.827 78.468 185.123 78.1399 185.716V191H76.4788V180.5H78.1399V184.41ZM88.6593 191.137C87.6066 191.137 86.7521 190.806 86.0958 190.146C85.4441 189.48 85.1183 188.596 85.1183 187.493V187.288C85.1183 186.55 85.2596 185.891 85.5421 185.312C85.8292 184.729 86.2303 184.276 86.7453 183.952C87.2602 183.629 87.8344 183.467 88.4679 183.467C89.4751 183.467 90.2521 183.788 90.799 184.431C91.3504 185.073 91.6261 185.982 91.6261 187.158V187.828H86.7931C86.8432 188.439 87.046 188.922 87.4015 189.277C87.7615 189.633 88.2127 189.811 88.755 189.811C89.5161 189.811 90.1359 189.503 90.6144 188.888L91.5099 189.742C91.2137 190.184 90.8172 190.528 90.3204 190.774C89.8283 191.016 89.2746 191.137 88.6593 191.137ZM88.4611 184.8C88.0053 184.8 87.6362 184.959 87.3537 185.278C87.0757 185.597 86.8979 186.042 86.8204 186.611H89.9855V186.488C89.949 185.932 89.8009 185.513 89.5412 185.23C89.2814 184.943 88.9214 184.8 88.4611 184.8ZM97.9141 185.121C97.6953 185.085 97.4697 185.066 97.2373 185.066C96.4763 185.066 95.9636 185.358 95.6992 185.941V191H94.0381V183.604H95.624L95.6651 184.431C96.0661 183.788 96.6221 183.467 97.333 183.467C97.57 183.467 97.766 183.499 97.9209 183.562L97.9141 185.121ZM101.85 191H100.189V183.604H101.85V191ZM100.087 181.683C100.087 181.427 100.167 181.215 100.326 181.047C100.49 180.878 100.723 180.794 101.023 180.794C101.324 180.794 101.557 180.878 101.721 181.047C101.885 181.215 101.967 181.427 101.967 181.683C101.967 181.933 101.885 182.143 101.721 182.312C101.557 182.476 101.324 182.558 101.023 182.558C100.723 182.558 100.49 182.476 100.326 182.312C100.167 182.143 100.087 181.933 100.087 181.683ZM109.266 190.275C108.779 190.85 108.086 191.137 107.188 191.137C106.386 191.137 105.778 190.902 105.363 190.433C104.953 189.963 104.748 189.284 104.748 188.396V183.604H106.409V188.375C106.409 189.314 106.799 189.783 107.578 189.783C108.385 189.783 108.929 189.494 109.212 188.915V183.604H110.873V191H109.307L109.266 190.275ZM115.247 183.604L115.295 184.376C115.814 183.77 116.525 183.467 117.427 183.467C118.416 183.467 119.093 183.845 119.458 184.602C119.995 183.845 120.752 183.467 121.727 183.467C122.543 183.467 123.149 183.692 123.546 184.144C123.947 184.595 124.152 185.26 124.161 186.14V191H122.5V186.188C122.5 185.718 122.397 185.374 122.192 185.155C121.987 184.937 121.647 184.827 121.173 184.827C120.795 184.827 120.485 184.93 120.244 185.135C120.007 185.335 119.84 185.6 119.745 185.928L119.752 191H118.09V186.133C118.068 185.262 117.623 184.827 116.757 184.827C116.092 184.827 115.62 185.098 115.342 185.641V191H113.681V183.604H115.247Z" fill="black"/>
<circle cx="93.3335" cy="103" r="60" fill="#C4C4C4"/>
<path d="M93.3345 163C126.472 163 153.334 136.137 153.334 103C153.334 69.8629 126.472 43 93.3345 43C60.1974 43 33.3345 69.8629 33.3345 103C33.3345 136.137 60.1974 163 93.3345 163Z" fill="#5B9074"/>
<path fill-rule="evenodd" clip-rule="evenodd" d="M95.2095 58L68.4907 99.7188L95.2095 87.5312L120.991 99.7188L95.2095 58ZM95.2095 93.1562L67.5532 105.344L95.2095 120.812L122.397 105.344L95.2095 93.1562ZM95.2095 126.438L122.397 110.5L95.6782 148.938L68.4907 110.5L95.2095 126.438Z" fill="white"/>
<defs>
<filter id="filter0_d" x="0.333496" y="0" width="194" height="224" filterUnits="userSpaceOnUse" color-interpolation-filters="sRGB">
<feFlood flood-opacity="0" result="BackgroundImageFix"/>
<feColorMatrix in="SourceAlpha" type="matrix" values="0 0 0 0 0 0 0 0 0 0 0 0 0 0 0 0 0 0 127 0"/>
<feMorphology radius="2" operator="dilate" in="SourceAlpha" result="effect1_dropShadow"/>
<feOffset dx="4" dy="-5"/>
<feGaussianBlur stdDeviation="10"/>
<feColorMatrix type="matrix" values="0 0 0 0 0 0 0 0 0 0 0 0 0 0 0 0 0 0 0.14 0"/>
<feBlend mode="normal" in2="BackgroundImageFix" result="effect1_dropShadow"/>
<feBlend mode="normal" in="SourceGraphic" in2="effect1_dropShadow" result="shape"/>
</filter>
</defs>
</svg>
