<svg width="201" height="33" viewBox="0 0 201 33" fill="none" xmlns="http://www.w3.org/2000/svg">
<path d="M4.98195 12.1851C6.19034 12.1851 7.16995 11.2055 7.16995 9.99708C7.16995 8.78868 6.19034 7.80908 4.98195 7.80908C3.77355 7.80908 2.79395 8.78868 2.79395 9.99708C2.79395 11.2055 3.77355 12.1851 4.98195 12.1851Z" fill="#03B2BA"/>
<path d="M9.23599 13.843V25.982H13.005V19.979C13.005 18.395 13.303 16.861 15.267 16.861C17.204 16.861 17.228 18.672 17.228 20.079V25.983H20.999V19.326C20.999 16.056 20.295 13.543 16.473 13.543C14.638 13.543 13.408 14.55 12.905 15.503H12.854V13.843H9.23599ZM3.09399 13.843H6.86899V25.982H3.09399V13.843Z" fill="#03B2BA"/>
<path d="M66.9865 3.37232C59.2584 3.36919 52.999 9.62544 52.999 17.3473C52.999 23.4536 56.9146 28.6442 62.3678 30.5504C63.1021 30.7348 62.9896 30.2129 62.9896 29.8567V27.4348C58.749 27.9317 58.5771 25.1254 58.2928 24.6567C57.7178 23.6754 56.3584 23.4254 56.7646 22.9567C57.7303 22.4598 58.7146 23.0817 59.8553 24.7661C60.6803 25.9879 62.2896 25.7817 63.1053 25.5786C63.2834 24.8442 63.6646 24.1879 64.1896 23.6786C59.7959 22.8911 57.9646 20.2098 57.9646 17.0223C57.9646 15.4754 58.474 14.0536 59.474 12.9067C58.8365 11.0161 59.5334 9.39732 59.6271 9.15669C61.4428 8.99419 63.3303 10.4567 63.4771 10.5723C64.5084 10.2942 65.6865 10.1473 67.0053 10.1473C68.3303 10.1473 69.5115 10.3004 70.5521 10.5817C70.9053 10.3129 72.6553 9.05669 74.3428 9.20982C74.4334 9.45044 75.1146 11.0317 74.5146 12.8973C75.5271 14.0473 76.0428 15.4817 76.0428 17.0317C76.0428 20.2254 74.199 22.9098 69.7928 23.6848C70.1702 24.056 70.4698 24.4986 70.6743 24.9869C70.8787 25.4751 70.9838 25.9992 70.9834 26.5286V30.0442C71.0084 30.3254 70.9834 30.6036 71.4521 30.6036C76.9865 28.7379 80.9709 23.5098 80.9709 17.3504C80.9709 9.62544 74.7084 3.37232 66.9865 3.37232Z" fill="#03B2BA"/>
<path d="M138.999 8.93493C138.043 9.34743 137.002 9.6443 135.93 9.75993C137.043 9.09879 137.877 8.0543 138.274 6.82243C137.23 7.44364 136.086 7.87925 134.893 8.10993C134.394 7.57688 133.791 7.15224 133.121 6.86245C132.452 6.57266 131.729 6.42394 130.999 6.42555C128.046 6.42555 125.671 8.8193 125.671 11.7568C125.671 12.1693 125.721 12.5818 125.802 12.9787C121.38 12.7474 117.437 10.6349 114.815 7.40055C114.337 8.21654 114.087 9.14563 114.09 10.0912C114.09 11.9412 115.03 13.5724 116.465 14.5318C115.62 14.4985 114.794 14.2662 114.055 13.8537V13.9193C114.055 16.5099 115.887 18.6568 118.327 19.1506C117.869 19.2696 117.398 19.3305 116.924 19.3318C116.577 19.3318 116.249 19.2974 115.918 19.2506C116.593 21.3631 118.559 22.8974 120.899 22.9474C119.068 24.3818 116.774 25.2256 114.284 25.2256C113.837 25.2256 113.424 25.2099 112.996 25.1599C115.359 26.6756 118.162 27.5506 121.18 27.5506C130.98 27.5506 136.343 19.4318 136.343 12.3849C136.343 12.1537 136.343 11.9224 136.327 11.6912C137.365 10.9318 138.274 9.99118 138.999 8.93493Z" fill="#03B2BA"/>
<path d="M188.812 10.185H195.046V11.6975H188.812V10.185ZM182.565 16.1693C183.943 15.51 184.665 14.5068 184.665 12.9568C184.665 9.89121 182.383 9.14746 179.749 9.14746H172.499V24.535H179.952C182.746 24.535 185.368 23.1912 185.368 20.0662C185.368 18.135 184.455 16.7068 182.565 16.1693ZM175.88 11.7725H179.052C180.274 11.7725 181.371 12.1131 181.371 13.5318C181.371 14.8381 180.518 15.3631 179.308 15.3631H175.88V11.7725ZM179.49 21.9225H175.877V17.685H179.562C181.049 17.685 181.99 18.3068 181.99 19.8818C181.99 21.4318 180.868 21.9225 179.49 21.9225ZM197.483 19.1256C197.483 15.8287 195.555 13.0818 192.068 13.0818C188.677 13.0818 186.371 15.635 186.371 18.9818C186.371 22.4506 188.555 24.8318 192.068 24.8318C194.727 24.8318 196.449 23.635 197.277 21.0818H194.58C194.287 22.035 193.093 22.535 192.165 22.535C190.371 22.535 189.433 21.485 189.433 19.7006H197.462C197.471 19.5162 197.483 19.3225 197.483 19.1256ZM189.433 17.7693C189.53 16.3037 190.508 15.3881 191.971 15.3881C193.508 15.3881 194.277 16.2912 194.412 17.7693H189.433Z" fill="#03B2BA"/>
</svg>
