<svg width="194" height="224" viewBox="0 0 194 224" fill="none" xmlns="http://www.w3.org/2000/svg">
<g filter="url(#filter0_d)">
<rect x="18" y="27" width="150" height="180" rx="12" fill="#FBFBFB"/>
</g>
<path d="M49.3184 188.539L50.8496 181.047H52.5654L50.2686 191H48.6143L46.7207 183.733L44.7861 191H43.125L40.8281 181.047H42.5439L44.0889 188.525L45.9893 181.047H47.4385L49.3184 188.539ZM58.9764 191C58.9035 190.859 58.8397 190.629 58.785 190.31C58.2564 190.861 57.6093 191.137 56.8436 191.137C56.1008 191.137 55.4947 190.925 55.0253 190.501C54.5559 190.077 54.3212 189.553 54.3212 188.929C54.3212 188.14 54.6128 187.536 55.1962 187.117C55.7841 186.693 56.6226 186.481 57.7118 186.481H58.7304V185.996C58.7304 185.613 58.6233 185.308 58.4091 185.08C58.1949 184.848 57.869 184.731 57.4315 184.731C57.0533 184.731 56.7434 184.827 56.5018 185.019C56.2603 185.205 56.1395 185.445 56.1395 185.736H54.4784C54.4784 185.331 54.6128 184.952 54.8817 184.602C55.1506 184.246 55.5152 183.968 55.9755 183.768C56.4403 183.567 56.9576 183.467 57.5272 183.467C58.3931 183.467 59.0835 183.686 59.5985 184.123C60.1135 184.556 60.3778 185.167 60.3915 185.955V189.291C60.3915 189.956 60.4849 190.487 60.6718 190.884V191H58.9764ZM57.1512 189.804C57.4794 189.804 57.787 189.724 58.0741 189.564C58.3658 189.405 58.5845 189.191 58.7304 188.922V187.527H57.8348C57.2196 187.527 56.757 187.634 56.4471 187.849C56.1373 188.063 55.9823 188.366 55.9823 188.758C55.9823 189.077 56.0871 189.332 56.2968 189.523C56.511 189.71 56.7958 189.804 57.1512 189.804ZM65.0183 191H63.3572V180.5H65.0183V191ZM69.7204 191H68.0592V180.5H69.7204V191ZM75.9126 191.137C74.8599 191.137 74.0054 190.806 73.3491 190.146C72.6974 189.48 72.3716 188.596 72.3716 187.493V187.288C72.3716 186.55 72.5129 185.891 72.7954 185.312C73.0825 184.729 73.4836 184.276 73.9986 183.952C74.5135 183.629 75.0877 183.467 75.7212 183.467C76.7284 183.467 77.5054 183.788 78.0523 184.431C78.6037 185.073 78.8794 185.982 78.8794 187.158V187.828H74.0464C74.0965 188.439 74.2993 188.922 74.6548 189.277C75.0148 189.633 75.466 189.811 76.0083 189.811C76.7694 189.811 77.3892 189.503 77.8677 188.888L78.7632 189.742C78.467 190.184 78.0705 190.528 77.5737 190.774C77.0816 191.016 76.5279 191.137 75.9126 191.137ZM75.7144 184.8C75.2586 184.8 74.8895 184.959 74.607 185.278C74.329 185.597 74.1512 186.042 74.0737 186.611H77.2388V186.488C77.2023 185.932 77.0542 185.513 76.7945 185.23C76.5347 184.943 76.1747 184.8 75.7144 184.8ZM83.3764 181.806V183.604H84.682V184.834H83.3764V188.963C83.3764 189.245 83.4311 189.451 83.5404 189.578C83.6544 189.701 83.8549 189.763 84.142 189.763C84.3334 189.763 84.5271 189.74 84.723 189.694V190.979C84.3448 191.084 83.9802 191.137 83.6293 191.137C82.3533 191.137 81.7152 190.433 81.7152 189.024V184.834H80.4984V183.604H81.7152V181.806H83.3764ZM94.8323 187.76C94.732 188.822 94.3401 189.651 93.6565 190.248C92.9729 190.84 92.0638 191.137 90.929 191.137C90.136 191.137 89.4365 190.95 88.8304 190.576C88.2288 190.198 87.7639 189.662 87.4358 188.97C87.1077 188.277 86.9368 187.473 86.9231 186.557V185.627C86.9231 184.688 87.0895 183.861 87.4221 183.146C87.7548 182.43 88.2311 181.879 88.8509 181.491C89.4752 181.104 90.1953 180.91 91.011 180.91C92.1093 180.91 92.9934 181.209 93.6634 181.806C94.3333 182.403 94.7229 183.246 94.8323 184.335H93.1096C93.0276 183.619 92.818 183.104 92.4807 182.79C92.1481 182.471 91.6582 182.312 91.011 182.312C90.2591 182.312 89.6803 182.587 89.2747 183.139C88.8736 183.686 88.6686 184.49 88.6595 185.552V186.434C88.6595 187.509 88.8509 188.329 89.2337 188.895C89.621 189.46 90.1861 189.742 90.929 189.742C91.608 189.742 92.1184 189.59 92.4602 189.284C92.802 188.979 93.0185 188.471 93.1096 187.76H94.8323ZM97.0324 187.233C97.0324 186.509 97.1759 185.857 97.463 185.278C97.7502 184.695 98.1535 184.248 98.673 183.938C99.1925 183.624 99.7895 183.467 100.464 183.467C101.462 183.467 102.271 183.788 102.891 184.431C103.515 185.073 103.852 185.925 103.903 186.987L103.909 187.377C103.909 188.106 103.768 188.758 103.486 189.332C103.208 189.906 102.806 190.351 102.282 190.665C101.763 190.979 101.161 191.137 100.478 191.137C99.4341 191.137 98.5978 190.79 97.9689 190.098C97.3446 189.4 97.0324 188.473 97.0324 187.315V187.233ZM98.6935 187.377C98.6935 188.138 98.8507 188.735 99.1652 189.168C99.4796 189.596 99.9171 189.811 100.478 189.811C101.038 189.811 101.473 189.592 101.783 189.154C102.098 188.717 102.255 188.076 102.255 187.233C102.255 186.486 102.093 185.894 101.77 185.456C101.451 185.019 101.015 184.8 100.464 184.8C99.9217 184.8 99.491 185.016 99.172 185.449C98.853 185.878 98.6935 186.52 98.6935 187.377ZM107.976 183.604L108.023 184.458C108.57 183.797 109.288 183.467 110.177 183.467C111.717 183.467 112.501 184.349 112.528 186.112V191H110.867V186.208C110.867 185.739 110.765 185.392 110.56 185.169C110.359 184.941 110.029 184.827 109.568 184.827C108.898 184.827 108.399 185.13 108.071 185.736V191H106.41V183.604H107.976ZM116.889 183.604L116.936 184.458C117.483 183.797 118.201 183.467 119.09 183.467C120.63 183.467 121.414 184.349 121.441 186.112V191H119.78V186.208C119.78 185.739 119.678 185.392 119.473 185.169C119.272 184.941 118.942 184.827 118.481 184.827C117.811 184.827 117.312 185.13 116.984 185.736V191H115.323V183.604H116.889ZM127.517 191.137C126.465 191.137 125.61 190.806 124.954 190.146C124.302 189.48 123.976 188.596 123.976 187.493V187.288C123.976 186.55 124.118 185.891 124.4 185.312C124.687 184.729 125.088 184.276 125.603 183.952C126.118 183.629 126.693 183.467 127.326 183.467C128.333 183.467 129.11 183.788 129.657 184.431C130.208 185.073 130.484 185.982 130.484 187.158V187.828H125.651C125.701 188.439 125.904 188.922 126.26 189.277C126.62 189.633 127.071 189.811 127.613 189.811C128.374 189.811 128.994 189.503 129.472 188.888L130.368 189.742C130.072 190.184 129.675 190.528 129.179 190.774C128.686 191.016 128.133 191.137 127.517 191.137ZM127.319 184.8C126.863 184.8 126.494 184.959 126.212 185.278C125.934 185.597 125.756 186.042 125.679 186.611H128.844V186.488C128.807 185.932 128.659 185.513 128.399 185.23C128.139 184.943 127.779 184.8 127.319 184.8ZM135.938 189.811C136.353 189.811 136.697 189.69 136.97 189.448C137.244 189.207 137.39 188.908 137.408 188.553H138.973C138.955 189.013 138.812 189.444 138.543 189.845C138.274 190.241 137.909 190.556 137.449 190.788C136.989 191.021 136.492 191.137 135.959 191.137C134.924 191.137 134.104 190.802 133.498 190.132C132.892 189.462 132.589 188.537 132.589 187.356V187.186C132.589 186.06 132.889 185.16 133.491 184.485C134.092 183.806 134.913 183.467 135.952 183.467C136.831 183.467 137.547 183.724 138.098 184.239C138.654 184.75 138.946 185.422 138.973 186.256H137.408C137.39 185.832 137.244 185.483 136.97 185.21C136.702 184.937 136.357 184.8 135.938 184.8C135.4 184.8 134.986 184.996 134.694 185.388C134.402 185.775 134.254 186.365 134.25 187.158V187.425C134.25 188.227 134.393 188.826 134.68 189.223C134.972 189.615 135.391 189.811 135.938 189.811ZM143.429 181.806V183.604H144.735V184.834H143.429V188.963C143.429 189.245 143.484 189.451 143.593 189.578C143.707 189.701 143.908 189.763 144.195 189.763C144.386 189.763 144.58 189.74 144.776 189.694V190.979C144.398 191.084 144.033 191.137 143.682 191.137C142.406 191.137 141.768 190.433 141.768 189.024V184.834H140.551V183.604H141.768V181.806H143.429Z" fill="black"/>
<circle cx="93" cy="103" r="59.5" fill="white" stroke="#3B99FC"/>
<g clip-path="url(#clip0)">
<path d="M63.4806 80.1985C79.7843 60.7844 106.218 60.7844 122.522 80.1985L124.484 82.535C125.299 83.5058 125.299 85.0796 124.484 86.0503L117.772 94.0431C117.364 94.5284 116.703 94.5284 116.296 94.0431L113.595 90.8277C102.221 77.284 83.7808 77.284 72.4069 90.8277L69.5152 94.2711C69.1076 94.7564 68.4467 94.7564 68.0391 94.2711L61.3269 86.2783C60.5117 85.3076 60.5117 83.7338 61.3269 82.7631L63.4806 80.1985ZM136.403 96.7284L142.377 103.842C143.192 104.813 143.192 106.387 142.377 107.357L115.44 139.433C114.625 140.404 113.304 140.404 112.488 139.433C112.488 139.433 112.488 139.433 112.488 139.433L93.3703 116.668C93.1665 116.425 92.836 116.425 92.6322 116.668L92.6322 116.668L73.5146 139.433C72.6994 140.404 71.3777 140.404 70.5625 139.433C70.5625 139.433 70.5625 139.433 70.5625 139.433L43.6251 107.357C42.8099 106.386 42.8099 104.812 43.6251 103.842L49.599 96.728C50.4142 95.7573 51.7358 95.7573 52.551 96.728L71.6693 119.494C71.8731 119.736 72.2036 119.736 72.4074 119.494C72.4074 119.494 72.4074 119.494 72.4074 119.494L91.5247 96.728C92.3399 95.7573 93.6616 95.7573 94.4768 96.7279C94.4768 96.728 94.4768 96.728 94.4768 96.728L113.595 119.494C113.799 119.736 114.129 119.736 114.333 119.494L133.451 96.7284C134.266 95.7577 135.588 95.7577 136.403 96.7284Z" fill="#3B99FC"/>
</g>
<defs>
<filter id="filter0_d" x="0" y="0" width="194" height="224" filterUnits="userSpaceOnUse" color-interpolation-filters="sRGB">
<feFlood flood-opacity="0" result="BackgroundImageFix"/>
<feColorMatrix in="SourceAlpha" type="matrix" values="0 0 0 0 0 0 0 0 0 0 0 0 0 0 0 0 0 0 127 0"/>
<feMorphology radius="2" operator="dilate" in="SourceAlpha" result="effect1_dropShadow"/>
<feOffset dx="4" dy="-5"/>
<feGaussianBlur stdDeviation="10"/>
<feColorMatrix type="matrix" values="0 0 0 0 0 0 0 0 0 0 0 0 0 0 0 0 0 0 0.14 0"/>
<feBlend mode="normal" in2="BackgroundImageFix" result="effect1_dropShadow"/>
<feBlend mode="normal" in="SourceGraphic" in2="effect1_dropShadow" result="shape"/>
</filter>
<clipPath id="clip0">
<rect width="100" height="75" fill="white" transform="translate(43.0015 65.5)"/>
</clipPath>
</defs>
</svg>
